<svg width="43" height="44" viewBox="0 0 43 44" fill="none" xmlns="http://www.w3.org/2000/svg">
<path d="M12.4286 0.285645H30.4286C37.2857 0.285645 42.8571 5.85707 42.8571 12.7142V30.7142C42.8571 34.0105 41.5477 37.1717 39.2169 39.5025C36.8861 41.8334 33.7248 43.1428 30.4286 43.1428H12.4286C5.57143 43.1428 0 37.5714 0 30.7142V12.7142C0 9.41795 1.30944 6.2567 3.64024 3.92589C5.97105 1.59508 9.13231 0.285645 12.4286 0.285645ZM12 4.57136C9.95404 4.57136 7.99189 5.38411 6.54518 6.83082C5.09847 8.27753 4.28571 10.2397 4.28571 12.2856V31.1428C4.28571 35.4071 7.73571 38.8571 12 38.8571H30.8571C32.9031 38.8571 34.8653 38.0443 36.312 36.5976C37.7587 35.1509 38.5714 33.1887 38.5714 31.1428V12.2856C38.5714 8.02136 35.1214 4.57136 30.8571 4.57136H12ZM32.6786 7.78564C33.389 7.78564 34.0703 8.06785 34.5726 8.57018C35.0749 9.07251 35.3571 9.75381 35.3571 10.4642C35.3571 11.1746 35.0749 11.8559 34.5726 12.3583C34.0703 12.8606 33.389 13.1428 32.6786 13.1428C31.9682 13.1428 31.2869 12.8606 30.7845 12.3583C30.2822 11.8559 30 11.1746 30 10.4642C30 9.75381 30.2822 9.07251 30.7845 8.57018C31.2869 8.06785 31.9682 7.78564 32.6786 7.78564ZM21.4286 10.9999C24.2702 10.9999 26.9954 12.1288 29.0047 14.1381C31.014 16.1474 32.1429 18.8726 32.1429 21.7142C32.1429 24.5558 31.014 27.281 29.0047 29.2904C26.9954 31.2997 24.2702 32.4285 21.4286 32.4285C18.587 32.4285 15.8617 31.2997 13.8524 29.2904C11.8431 27.281 10.7143 24.5558 10.7143 21.7142C10.7143 18.8726 11.8431 16.1474 13.8524 14.1381C15.8617 12.1288 18.587 10.9999 21.4286 10.9999ZM21.4286 15.2856C19.7236 15.2856 18.0885 15.9629 16.8829 17.1685C15.6773 18.3741 15 20.0093 15 21.7142C15 23.4192 15.6773 25.0543 16.8829 26.2599C18.0885 27.4655 19.7236 28.1428 21.4286 28.1428C23.1335 28.1428 24.7687 27.4655 25.9743 26.2599C27.1798 25.0543 27.8571 23.4192 27.8571 21.7142C27.8571 20.0093 27.1798 18.3741 25.9743 17.1685C24.7687 15.9629 23.1335 15.2856 21.4286 15.2856Z" fill="#A0A0A0"/>
</svg>
