<svg width="43" height="31" viewBox="0 0 43 31" fill="none" xmlns="http://www.w3.org/2000/svg">
<path d="M17.1429 22.2857L28.2643 15.8572L17.1429 9.42861V22.2857ZM41.9143 5.50718C42.1929 6.51432 42.3857 7.86432 42.5143 9.57861C42.6643 11.2929 42.7286 12.7715 42.7286 14.0572L42.8571 15.8572C42.8571 20.55 42.5143 24 41.9143 26.2072C41.3786 28.1357 40.1357 29.3786 38.2071 29.9143C37.2 30.1929 35.3571 30.3857 32.5286 30.5143C29.7429 30.6643 27.1929 30.7286 24.8357 30.7286L21.4286 30.8572C12.45 30.8572 6.85714 30.5143 4.65 29.9143C2.72143 29.3786 1.47857 28.1357 0.942857 26.2072C0.664286 25.2 0.471429 23.85 0.342857 22.1357C0.192857 20.4215 0.128571 18.9429 0.128571 17.6572L0 15.8572C0 11.1643 0.342857 7.71432 0.942857 5.50718C1.47857 3.57861 2.72143 2.33575 4.65 1.80003C5.65714 1.52146 7.5 1.32861 10.3286 1.20003C13.1143 1.05003 15.6643 0.985749 18.0214 0.985749L21.4286 0.857178C30.4071 0.857178 36 1.20003 38.2071 1.80003C40.1357 2.33575 41.3786 3.57861 41.9143 5.50718Z" fill="#A0A0A0"/>
</svg>
